<svg height='100px' width='100px'  fill="#266980" xmlns="http://www.w3.org/2000/svg" xmlns:xlink="http://www.w3.org/1999/xlink" version="1.1" x="0px" y="0px" viewBox="0 0 70 70" style="enable-background:new 0 0 70 70;" xml:space="preserve"><g><path d="M33.7091675,37.529541c-0.2039185-0.2506104-0.3460083-0.6435547-0.4266968-1.1784668l-1.0437012,0.1881104   c0.0384521,0.5163574,0.1759644,0.9536133,0.4122314,1.3112793c0.2365112,0.3580322,0.5170898,0.6169434,0.84198,0.7775879   c0.324707,0.1604004,0.746582,0.2719727,1.2655029,0.3347168v0.9958496h0.6112671v-1.0068359   c0.7264404-0.0332031,1.3184204-0.2805176,1.7757568-0.7415771c0.4575195-0.4610596,0.6862183-1.036499,0.6862183-1.7264404   c0-0.3134766-0.0547485-0.6048584-0.1643066-0.8742676c-0.1094971-0.269043-0.2662964-0.5014648-0.4699707-0.6971436   c-0.2036743-0.1954346-0.46698-0.3614502-0.789856-0.4979248c-0.1692505-0.0700684-0.5150757-0.1677246-1.0378418-0.2932129   v-2.8718262c0.3381958,0.0664063,0.6043091,0.2038574,0.7985229,0.4121094   c0.1940308,0.2084961,0.3218384,0.5083008,0.3834229,0.8994141l1.0724487-0.1551514   c-0.0921631-0.6307373-0.3652954-1.1268311-0.8187866-1.4884033c-0.3536987-0.2839355-0.8321533-0.4537354-1.4356079-0.5089111   v-0.4759521h-0.6112671v0.4759521c-0.6879883,0.0662842-1.2070923,0.2471924-1.5567627,0.5421143   c-0.5227051,0.439209-0.7841797,1.0125732-0.7841797,1.7208252c0,0.3985596,0.0893555,0.7545166,0.2680664,1.0679932   c0.178772,0.3134766,0.4334106,0.5588379,0.7640991,0.7359619c0.4458618,0.2398682,0.882019,0.3983154,1.3087769,0.4759521   v3.1704102C34.3510742,38.0811768,34.0012207,37.8837891,33.7091675,37.529541z M35.369751,35.0894775   c0.5571899,0.1734619,0.9291382,0.369873,1.1157227,0.5892334c0.1864014,0.2196045,0.2796021,0.5101318,0.2796021,0.87146   c0,0.4243164-0.1318359,0.7802734-0.3948975,1.0679932c-0.2634888,0.2877197-0.5968018,0.4556885-1.0004272,0.50354V35.0894775z    M33.7524414,33.446167c-0.1980591-0.2287598-0.2970581-0.5126953-0.2970581-0.8520508   c0-0.3432617,0.116333-0.6401367,0.3488159-0.8909912c0.232666-0.2508545,0.5507202-0.4056396,0.9542847-0.4647217v2.7554932   C34.2856445,33.8575439,33.9503174,33.6748047,33.7524414,33.446167z"></path><path d="M35.0300293,10.8900146L21.5,20.210083v38.8999023h27V20.210083L35.0300293,10.8900146z M35,16.1099854   c1.7000122,0,3.0800171,1.3400879,3.0800171,3c0,1.6501465-1.3800049,3-3.0800171,3s-3.0799561-1.3498535-3.0799561-3   C31.9200439,17.4500732,33.2999878,16.1099854,35,16.1099854z M35.0400391,26.3900146   c4.8899536,0,8.8599854,3.8400879,8.8599854,8.5600586c0,4.7099609-3.9700317,8.5500488-8.8599854,8.5500488   c-4.8900146,0-8.8699951-3.8400879-8.8699951-8.5500488C26.1700439,30.2301025,30.1500244,26.3900146,35.0400391,26.3900146z    M44.3800049,55.1099854H25.6199951v-2h18.7600098V55.1099854z M44.3800049,51.1099854H25.6199951v-2h18.7600098V51.1099854z"></path></g></svg>