<svg height='100px' width='100px'  fill="#ffffff" xmlns="http://www.w3.org/2000/svg" xmlnsXlink="http://www.w3.org/1999/xlink" xmlnsSerif="http://www.serif.com/" viewBox="0 0 101 101" version="1.1" xmlSpace="preserve" style="" x="0px" y="0px" fillRule="evenodd" clipRule="evenodd" stroke-linejoin="round" strokeMiterlimit="2"><rect serifId="Page 23" x="0.5" y="0.5" width="100" height="100" style="" fill="none"></rect><circle cx="7.545" cy="50.5" r="2.045"></circle><circle cx="7.545" cy="25.955" r="2.045"></circle><circle cx="7.545" cy="75.045" r="2.045"></circle><circle cx="56.636" cy="75.045" r="2.045"></circle><circle cx="32.091" cy="50.5" r="2.045"></circle><circle cx="32.091" cy="75.045" r="2.045"></circle><circle cx="7.545" cy="13.682" r="2.045"></circle><circle cx="7.545" cy="62.773" r="2.045"></circle><circle cx="7.545" cy="38.227" r="2.045"></circle><circle cx="7.545" cy="87.318" r="2.045"></circle><circle cx="56.636" cy="62.773" r="2.045"></circle><circle cx="56.636" cy="87.318" r="2.045"></circle><circle cx="32.091" cy="62.773" r="2.045"></circle><circle cx="32.091" cy="38.227" r="2.045"></circle><circle cx="32.091" cy="87.318" r="2.045"></circle><circle cx="81.182" cy="87.318" r="2.045"></circle><circle cx="7.545" cy="7.545" r="2.045"></circle><circle cx="7.545" cy="56.636" r="2.045"></circle><circle cx="7.545" cy="32.091" r="2.045"></circle><circle cx="7.545" cy="81.182" r="2.045"></circle><circle cx="56.636" cy="56.636" r="2.045"></circle><circle cx="56.636" cy="81.182" r="2.045"></circle><circle cx="32.091" cy="56.636" r="2.045"></circle><circle cx="32.091" cy="32.091" r="2.045"></circle><circle cx="32.091" cy="81.182" r="2.045"></circle><circle cx="81.182" cy="81.182" r="2.045"></circle><circle cx="7.545" cy="19.818" r="2.045"></circle><circle cx="7.545" cy="68.909" r="2.045"></circle><circle cx="7.545" cy="44.364" r="2.045"></circle><circle cx="7.545" cy="93.455" r="2.045"></circle><circle cx="56.636" cy="68.909" r="2.045"></circle><circle cx="56.636" cy="93.455" r="2.045"></circle><circle cx="32.091" cy="68.909" r="2.045"></circle><circle cx="32.091" cy="44.364" r="2.045"></circle><circle cx="32.091" cy="93.455" r="2.045"></circle><circle cx="81.182" cy="93.455" r="2.045"></circle><circle cx="13.682" cy="50.5" r="2.045"></circle><circle cx="13.682" cy="25.955" r="2.045"></circle><circle cx="13.682" cy="75.045" r="2.045"></circle><circle cx="62.773" cy="75.045" r="2.045"></circle><circle cx="38.227" cy="50.5" r="2.045"></circle><circle cx="38.227" cy="75.045" r="2.045"></circle><circle cx="13.682" cy="13.682" r="2.045"></circle><circle cx="13.682" cy="62.773" r="2.045"></circle><circle cx="13.682" cy="38.227" r="2.045"></circle><circle cx="13.682" cy="87.318" r="2.045"></circle><circle cx="62.773" cy="62.773" r="2.045"></circle><circle cx="62.773" cy="87.318" r="2.045"></circle><circle cx="38.227" cy="62.773" r="2.045"></circle><circle cx="38.227" cy="38.227" r="2.045"></circle><circle cx="38.227" cy="87.318" r="2.045"></circle><circle cx="87.318" cy="87.318" r="2.045"></circle><circle cx="13.682" cy="56.636" r="2.045"></circle><circle cx="13.682" cy="32.091" r="2.045"></circle><circle cx="13.682" cy="81.182" r="2.045"></circle><circle cx="62.773" cy="81.182" r="2.045"></circle><circle cx="38.227" cy="56.636" r="2.045"></circle><circle cx="38.227" cy="81.182" r="2.045"></circle><circle cx="13.682" cy="19.818" r="2.045"></circle><circle cx="13.682" cy="68.909" r="2.045"></circle><circle cx="13.682" cy="44.364" r="2.045"></circle><circle cx="13.682" cy="93.455" r="2.045"></circle><circle cx="62.773" cy="68.909" r="2.045"></circle><circle cx="62.773" cy="93.455" r="2.045"></circle><circle cx="38.227" cy="68.909" r="2.045"></circle><circle cx="38.227" cy="44.364" r="2.045"></circle><circle cx="38.227" cy="93.455" r="2.045"></circle><circle cx="87.318" cy="93.455" r="2.045"></circle><circle cx="19.818" cy="50.5" r="2.045"></circle><circle cx="19.818" cy="25.955" r="2.045"></circle><circle cx="19.818" cy="75.045" r="2.045"></circle><circle cx="68.909" cy="75.045" r="2.045"></circle><circle cx="44.364" cy="50.5" r="2.045"></circle><circle cx="44.364" cy="75.045" r="2.045"></circle><circle cx="25.955" cy="50.5" r="2.045"></circle><circle cx="25.955" cy="25.955" r="2.045"></circle><circle cx="25.955" cy="75.045" r="2.045"></circle><circle cx="75.045" cy="75.045" r="2.045"></circle><circle cx="50.5" cy="50.5" r="2.045"></circle><circle cx="50.5" cy="75.045" r="2.045"></circle><circle cx="19.818" cy="62.773" r="2.045"></circle><circle cx="19.818" cy="38.227" r="2.045"></circle><circle cx="19.818" cy="87.318" r="2.045"></circle><circle cx="68.909" cy="87.318" r="2.045"></circle><circle cx="44.364" cy="62.773" r="2.045"></circle><circle cx="44.364" cy="87.318" r="2.045"></circle><circle cx="25.955" cy="62.773" r="2.045"></circle><circle cx="25.955" cy="38.227" r="2.045"></circle><circle cx="25.955" cy="87.318" r="2.045"></circle><circle cx="75.045" cy="87.318" r="2.045"></circle><circle cx="50.5" cy="62.773" r="2.045"></circle><circle cx="50.5" cy="87.318" r="2.045"></circle><circle cx="19.818" cy="56.636" r="2.045"></circle><circle cx="19.818" cy="32.091" r="2.045"></circle><circle cx="19.818" cy="81.182" r="2.045"></circle><circle cx="68.909" cy="81.182" r="2.045"></circle><circle cx="44.364" cy="56.636" r="2.045"></circle><circle cx="44.364" cy="81.182" r="2.045"></circle><circle cx="25.955" cy="56.636" r="2.045"></circle><circle cx="25.955" cy="32.091" r="2.045"></circle><circle cx="25.955" cy="81.182" r="2.045"></circle><circle cx="75.045" cy="81.182" r="2.045"></circle><circle cx="50.5" cy="56.636" r="2.045"></circle><circle cx="50.5" cy="81.182" r="2.045"></circle><circle cx="19.818" cy="19.818" r="2.045"></circle><circle cx="19.818" cy="68.909" r="2.045"></circle><circle cx="19.818" cy="44.364" r="2.045"></circle><circle cx="19.818" cy="93.455" r="2.045"></circle><circle cx="68.909" cy="68.909" r="2.045"></circle><circle cx="68.909" cy="93.455" r="2.045"></circle><circle cx="44.364" cy="68.909" r="2.045"></circle><circle cx="44.364" cy="44.364" r="2.045"></circle><circle cx="44.364" cy="93.455" r="2.045"></circle><circle cx="93.455" cy="93.455" r="2.045"></circle><circle cx="25.955" cy="68.909" r="2.045"></circle><circle cx="25.955" cy="44.364" r="2.045"></circle><circle cx="25.955" cy="93.455" r="2.045"></circle><circle cx="75.045" cy="93.455" r="2.045"></circle><circle cx="50.5" cy="68.909" r="2.045"></circle><circle cx="50.5" cy="93.455" r="2.045"></circle></svg>